<svg width="216" height="155" viewBox="0 0 216 155" fill="none" xmlns="http://www.w3.org/2000/svg">
<path d="M14.88 141.92C14.32 142.08 13.7867 142.16 13.28 142.16C12.7733 142.187 12.2533 142.213 11.72 142.24C11.2133 142.267 10.5067 142.28 9.6 142.28C8.69333 142.28 7.33333 142.253 5.52 142.2C5.09333 142.227 4.66667 142.24 4.24 142.24C3.81333 142.24 3.41333 142.16 3.04 142C2.21333 141.653 1.65333 140.853 1.36 139.6C1.22667 139.013 1.08 138.6 0.92 138.36C0.733333 138.12 0.586667 137.893 0.48 137.68C0.213333 137.253 0.24 136.547 0.56 135.56C0.853333 134.573 1.24 133.36 1.72 131.92C2.2 130.453 2.74667 128.907 3.36 127.28C4.8 123.413 6.09333 120.347 7.24 118.08C7.69333 117.067 8.08 116.187 8.4 115.44C8.74667 114.693 9.05333 114.053 9.32 113.52C9.58667 112.96 9.72 112.667 9.72 112.64C9.98667 111.627 11.0133 110.773 12.8 110.08C14.5333 109.36 16.1067 109.173 17.52 109.52C19.0933 109.92 19.7867 110.96 19.6 112.64C19.2267 114.293 18.6667 115.947 17.92 117.6C17.2 119.253 16.3733 120.987 15.44 122.8C14.5067 124.613 13.4933 126.533 12.4 128.56C11.3067 130.587 10.2267 132.787 9.16 135.16C9.13333 135.267 9.18667 135.36 9.32 135.44C9.66667 135.413 10.1467 135.307 10.76 135.12C11.4 134.933 12.0533 134.773 12.72 134.64C13.4133 134.48 14.0933 134.4 14.76 134.4C15.4267 134.4 15.9867 134.573 16.44 134.92C16.4133 135.4 16.5333 135.787 16.8 136.08C17.0667 136.347 17.3333 136.613 17.6 136.88C18.2667 137.573 18.32 138.493 17.76 139.64C17.2267 140.76 16.2667 141.52 14.88 141.92ZM24.9519 122.68C25.2985 121.8 26.1252 121.2 27.4319 120.88C28.6585 120.56 29.8052 120.6 30.8719 121C31.9652 121.427 32.4585 122.12 32.3519 123.08C32.0585 124.013 31.6852 125.16 31.2319 126.52C30.8052 127.853 30.3919 129.227 29.9919 130.64C28.9252 134.267 28.3119 136.827 28.1519 138.32C27.7519 140.72 27.0852 142.013 26.1519 142.2C25.8852 142.253 25.6319 142.293 25.3919 142.32C24.8052 142.347 24.4319 142.507 24.2719 142.8C24.1119 143.093 23.8452 143.307 23.4719 143.44C23.0985 143.6 22.6852 143.667 22.2319 143.64C21.8052 143.64 21.3652 143.533 20.9119 143.32C20.4585 143.133 20.0719 142.853 19.7519 142.48C19.0052 141.573 18.8585 140.36 19.3119 138.84C19.7385 135.933 20.8185 132.24 22.5519 127.76C23.3785 125.547 24.1785 123.853 24.9519 122.68ZM32.5119 116.68C31.2052 116.947 30.1385 116.867 29.3119 116.44C28.5119 116.013 28.0452 115.507 27.9119 114.92C27.7785 114.307 27.9652 113.68 28.4719 113.04C29.0585 112.24 29.9385 111.72 31.1119 111.48C31.6452 111.427 32.0319 111.4 32.2719 111.4C32.5119 111.4 32.8052 111.453 33.1519 111.56C34.0319 111.64 34.6052 112.027 34.8719 112.72C35.2452 113.307 35.2719 113.973 34.9519 114.72C34.6585 115.467 33.8452 116.12 32.5119 116.68ZM39.2034 122.68C40.9901 121.96 42.1901 121.947 42.8034 122.64C43.1234 123.013 43.2834 123.533 43.2834 124.2V124.4C44.2701 123.253 45.9901 122.293 48.4434 121.52C51.0301 120.72 53.1634 120.493 54.8434 120.84C57.0301 121.293 58.2568 122.72 58.5234 125.12C58.7368 127.147 58.2701 129.72 57.1234 132.84C56.7501 133.64 56.4568 134.293 56.2434 134.8C56.0568 135.28 55.8834 135.72 55.7234 136.12C55.3768 136.867 54.8301 137.76 54.0834 138.8C53.6568 139.6 52.9901 140.213 52.0834 140.64C51.2034 141.067 50.3234 141.307 49.4434 141.36C48.5901 141.44 47.8834 141.307 47.3234 140.96C46.7634 140.64 46.6034 140.12 46.8434 139.4C47.4568 137.747 47.9634 136.24 48.3634 134.88C48.7634 133.52 49.1768 132.36 49.6034 131.4C50.0034 130.04 50.0568 129.187 49.7634 128.84C49.5234 128.573 49.1101 128.613 48.5234 128.96C48.0168 129.28 47.6568 129.653 47.4434 130.08C46.9634 130.427 46.0568 131.813 44.7234 134.24C44.3501 134.907 43.9768 135.573 43.6034 136.24C43.2568 136.88 42.9234 137.48 42.6034 138.04C42.3101 138.6 42.0434 139.067 41.8034 139.44C41.5901 139.813 41.3901 140.053 41.2034 140.16C41.0434 140.293 40.8968 140.373 40.7634 140.4C40.6568 140.453 40.5634 140.507 40.4834 140.56C40.4034 140.613 40.3368 140.787 40.2834 141.08C40.1768 141.693 39.5368 142.147 38.3634 142.44C36.4701 142.92 34.7634 142.84 33.2434 142.2C32.7368 141.987 32.3368 141.693 32.0434 141.32C31.4301 140.093 32.4834 135.92 35.2034 128.8C36.1634 126.293 36.7901 124.8 37.0834 124.32C37.7501 123.307 38.1768 122.733 38.3634 122.6C38.5768 122.467 38.8568 122.493 39.2034 122.68ZM75.4172 124.04C75.8705 123.213 76.4705 122.8 77.2172 122.8C78.3639 123.44 79.0839 124.48 79.3772 125.92C79.6705 127.36 79.3505 128.653 78.4172 129.8C78.3905 129.827 78.4039 130.053 78.4572 130.48C78.9372 133.147 78.7639 135.92 77.9372 138.8C77.6439 139.76 77.2972 140.653 76.8972 141.48C76.5239 142.307 76.0439 143.347 75.4572 144.6C74.8972 145.853 74.0972 147.093 73.0572 148.32C72.0172 149.547 70.8439 150.52 69.5372 151.24C66.7905 152.787 63.7239 153.12 60.3372 152.24C59.1105 151.76 58.2572 151.2 57.7772 150.56C57.1639 149.787 56.9505 148.96 57.1372 148.08C57.3239 146.987 57.9639 146.387 59.0572 146.28C59.5905 146.227 60.2572 146.427 61.0572 146.88C61.9639 147.067 62.6972 147.053 63.2572 146.84C63.8172 146.627 64.2572 146.427 64.5772 146.24C64.9239 146.08 65.3505 145.867 65.8572 145.6C66.7372 145.147 67.7372 144.107 68.8572 142.48C69.4705 141.627 70.0839 140.48 70.6972 139.04C69.7105 140.293 68.1372 140.907 65.9772 140.88C65.3639 140.853 64.6705 140.827 63.8972 140.8C63.1505 140.773 62.4705 140.52 61.8572 140.04C61.2439 139.56 60.7505 138.933 60.3772 138.16C60.0039 137.387 59.7505 136.507 59.6172 135.52C59.5105 134.507 59.5105 133.48 59.6172 132.44C60.0439 128.813 61.5639 125.947 64.1772 123.84C65.9639 122.373 67.8839 121.587 69.9372 121.48C70.9239 121.427 71.8572 121.533 72.7372 121.8C73.8039 122.2 74.6972 122.947 75.4172 124.04ZM70.5372 133.12C70.5372 133.04 70.5505 132.973 70.5772 132.92C70.4439 132.867 70.3105 132.827 70.1772 132.8C70.0439 132.747 69.8039 132.667 69.4572 132.56C69.1105 132.453 68.6439 132.52 68.0572 132.76C67.4705 132.973 66.9505 133.28 66.4972 133.68C66.0705 134.053 65.7239 134.453 65.4572 134.88C65.2172 135.307 65.1772 135.667 65.3372 135.96C65.5239 136.253 65.8439 136.373 66.2972 136.32C66.7505 136.24 67.2439 136.04 67.7772 135.72C68.9505 135 69.8705 134.133 70.5372 133.12ZM85.8969 122.92C86.4569 122.52 87.1502 122.427 87.9769 122.64C88.1369 122.667 88.2969 122.68 88.4569 122.68C89.0435 121.48 90.0569 120.853 91.4969 120.8C91.8702 120.773 92.3902 120.707 93.0569 120.6C93.7235 120.493 94.5235 120.52 95.4569 120.68C96.4169 120.84 97.2569 121.12 97.9769 121.52C99.5502 122.373 100.497 123.6 100.817 125.2C101.457 127.547 101.364 130.107 100.537 132.88C99.6569 135.947 98.1635 138.4 96.0569 140.24C95.0969 141.093 94.0835 141.627 93.0169 141.84C91.9502 142.08 90.9902 142.213 90.1369 142.24C89.2835 142.267 88.4969 142.267 87.7769 142.24C87.0835 142.24 86.4035 142.173 85.7369 142.04C84.2969 141.747 83.1102 141.067 82.1769 140C81.0835 138.8 80.6169 136.933 80.7769 134.4C80.8835 132.16 81.4435 129.907 82.4569 127.64C83.4969 125.347 84.6435 123.773 85.8969 122.92ZM92.9369 130.96C92.2702 131.173 91.6435 131.267 91.0569 131.24C90.7635 131.533 90.4969 131.853 90.2569 132.2C90.0435 132.52 89.7502 132.827 89.3769 133.12C89.0035 133.387 88.8169 133.493 88.8169 133.44C88.3635 134.08 87.9902 134.747 87.6969 135.44C87.4035 136.107 87.4035 136.787 87.6969 137.48C88.7635 137.587 89.5502 137.56 90.0569 137.4C90.5635 137.24 91.0302 136.933 91.4569 136.48C91.9102 136.027 92.2569 135.493 92.4969 134.88C92.9769 133.733 93.1235 132.427 92.9369 130.96ZM127.614 141.92C127.054 142.08 126.521 142.16 126.014 142.16C125.508 142.187 124.988 142.213 124.454 142.24C123.948 142.267 123.241 142.28 122.334 142.28C121.428 142.28 120.068 142.253 118.254 142.2C117.828 142.227 117.401 142.24 116.974 142.24C116.548 142.24 116.148 142.16 115.774 142C114.948 141.653 114.388 140.853 114.094 139.6C113.961 139.013 113.814 138.6 113.654 138.36C113.468 138.12 113.321 137.893 113.214 137.68C112.948 137.253 112.974 136.547 113.294 135.56C113.588 134.573 113.974 133.36 114.454 131.92C114.934 130.453 115.481 128.907 116.094 127.28C117.534 123.413 118.828 120.347 119.974 118.08C120.428 117.067 120.814 116.187 121.134 115.44C121.481 114.693 121.788 114.053 122.054 113.52C122.321 112.96 122.454 112.667 122.454 112.64C122.721 111.627 123.748 110.773 125.534 110.08C127.268 109.36 128.841 109.173 130.254 109.52C131.828 109.92 132.521 110.96 132.334 112.64C131.961 114.293 131.401 115.947 130.654 117.6C129.934 119.253 129.108 120.987 128.174 122.8C127.241 124.613 126.228 126.533 125.134 128.56C124.041 130.587 122.961 132.787 121.894 135.16C121.868 135.267 121.921 135.36 122.054 135.44C122.401 135.413 122.881 135.307 123.494 135.12C124.134 134.933 124.788 134.773 125.454 134.64C126.148 134.48 126.828 134.4 127.494 134.4C128.161 134.4 128.721 134.573 129.174 134.92C129.148 135.4 129.268 135.787 129.534 136.08C129.801 136.347 130.068 136.613 130.334 136.88C131.001 137.573 131.054 138.493 130.494 139.64C129.961 140.76 129.001 141.52 127.614 141.92ZM146.366 134.08C145.86 134.32 145.366 134.507 144.886 134.64C144.406 134.773 143.846 134.907 143.206 135.04C141.526 135.387 140.313 135.587 139.566 135.64C139.646 135.907 140.046 136.227 140.766 136.6C141.246 136.68 141.766 136.613 142.326 136.4C142.913 136.16 143.513 135.947 144.126 135.76C144.766 135.547 145.38 135.427 145.966 135.4C146.58 135.373 147.153 135.6 147.686 136.08C147.9 136.56 148.073 136.84 148.206 136.92C148.34 137 148.46 137.04 148.566 137.04C148.673 137.04 148.793 137.08 148.926 137.16C149.06 137.24 149.246 137.547 149.486 138.08C149.753 138.613 149.686 139.12 149.286 139.6C148.913 140.08 148.326 140.493 147.526 140.84C146.726 141.187 145.793 141.467 144.726 141.68C143.66 141.893 142.593 142.04 141.526 142.12C139.126 142.307 137.3 142.12 136.046 141.56C134.233 140.947 133.06 139.733 132.526 137.92C131.833 135.52 132.22 132.72 133.686 129.52C134.353 128.027 135.406 126.427 136.846 124.72C138.1 123.227 139.5 122.147 141.046 121.48C142.833 120.707 144.7 120.347 146.646 120.4C148.726 120.453 150.166 121.36 150.966 123.12C151.366 124.053 151.446 125.36 151.206 127.04C150.78 129.227 150.22 130.773 149.526 131.68C148.833 132.56 147.78 133.36 146.366 134.08ZM144.046 127.76C142.633 127.467 141.526 128.267 140.726 130.16C140.486 130.667 140.3 131.2 140.166 131.76C141.073 131.867 142.033 131.36 143.046 130.24C143.42 129.787 143.7 129.333 143.886 128.88C144.073 128.4 144.126 128.027 144.046 127.76ZM170.023 122.84L170.183 122.88C170.236 122.88 170.263 122.893 170.263 122.92C170.956 122.653 171.53 122.853 171.983 123.52C172.276 123.973 172.503 124.667 172.663 125.6C172.716 126.88 172.583 128.653 172.263 130.92C171.65 135.507 171.316 138.24 171.263 139.12C171.316 140.053 170.743 140.693 169.543 141.04C168.503 141.36 167.463 141.347 166.423 141C165.33 140.627 164.876 140.053 165.063 139.28C164.85 139.68 164.636 139.96 164.423 140.12C164.21 140.307 163.783 140.547 163.143 140.84C162.53 141.16 161.65 141.413 160.503 141.6C159.356 141.813 158.21 141.867 157.063 141.76C155.916 141.68 154.863 141.4 153.903 140.92C152.97 140.467 152.343 139.747 152.023 138.76C151.41 136.84 151.49 134.4 152.263 131.44C152.796 129.493 153.756 127.773 155.143 126.28C156.743 124.573 158.556 123.16 160.583 122.04C162.103 121.213 163.57 120.72 164.983 120.56C165.463 120.507 165.876 120.52 166.223 120.6C166.596 120.68 166.983 120.76 167.383 120.84C167.81 120.92 168.21 121.04 168.583 121.2C169.543 121.6 170.023 122.147 170.023 122.84ZM162.623 133.44C162.81 133.067 162.956 132.6 163.063 132.04C163.196 131.48 163.37 130.867 163.583 130.2C161.423 131.08 159.77 132.16 158.623 133.44C157.37 134.853 157.45 135.827 158.863 136.36C160.09 136.68 160.983 136.48 161.543 135.76C161.783 135.44 161.996 135.04 162.183 134.56C162.37 134.08 162.596 133.587 162.863 133.08C162.783 133.213 162.703 133.333 162.623 133.44ZM177.308 123.44C177.682 122.48 178.202 121.76 178.868 121.28C179.562 120.773 180.215 120.467 180.828 120.36C181.468 120.227 181.988 120.293 182.388 120.56C182.815 120.827 182.962 121.24 182.828 121.8C183.335 121.293 184.068 120.827 185.028 120.4C185.988 119.973 186.748 119.68 187.308 119.52C187.868 119.36 188.348 119.28 188.748 119.28C189.628 119.333 189.882 119.813 189.508 120.72C189.962 120.8 190.295 121.093 190.508 121.6C190.722 122.107 190.748 122.667 190.588 123.28C190.428 123.893 190.068 124.493 189.508 125.08C188.948 125.667 188.188 126.067 187.228 126.28C186.295 126.493 185.508 126.987 184.868 127.76C184.255 128.507 183.708 129.44 183.228 130.56C182.428 132.453 181.708 135.133 181.068 138.6C180.855 139.853 179.988 140.907 178.468 141.76C177.028 142.587 175.708 142.827 174.508 142.48C173.148 142.107 172.548 141.107 172.708 139.48C172.762 138.333 173.108 136.813 173.748 134.92C174.388 133 174.882 131.56 175.228 130.6C175.575 129.613 175.815 128.867 175.948 128.36L177.308 123.44ZM195.727 122.68C197.514 121.96 198.714 121.947 199.327 122.64C199.647 123.013 199.807 123.533 199.807 124.2V124.4C200.794 123.253 202.514 122.293 204.967 121.52C207.554 120.72 209.687 120.493 211.367 120.84C213.554 121.293 214.78 122.72 215.047 125.12C215.26 127.147 214.794 129.72 213.647 132.84C213.274 133.64 212.98 134.293 212.767 134.8C212.58 135.28 212.407 135.72 212.247 136.12C211.9 136.867 211.354 137.76 210.607 138.8C210.18 139.6 209.514 140.213 208.607 140.64C207.727 141.067 206.847 141.307 205.967 141.36C205.114 141.44 204.407 141.307 203.847 140.96C203.287 140.64 203.127 140.12 203.367 139.4C203.98 137.747 204.487 136.24 204.887 134.88C205.287 133.52 205.7 132.36 206.127 131.4C206.527 130.04 206.58 129.187 206.287 128.84C206.047 128.573 205.634 128.613 205.047 128.96C204.54 129.28 204.18 129.653 203.967 130.08C203.487 130.427 202.58 131.813 201.247 134.24C200.874 134.907 200.5 135.573 200.127 136.24C199.78 136.88 199.447 137.48 199.127 138.04C198.834 138.6 198.567 139.067 198.327 139.44C198.114 139.813 197.914 140.053 197.727 140.16C197.567 140.293 197.42 140.373 197.287 140.4C197.18 140.453 197.087 140.507 197.007 140.56C196.927 140.613 196.86 140.787 196.807 141.08C196.7 141.693 196.06 142.147 194.887 142.44C192.994 142.92 191.287 142.84 189.767 142.2C189.26 141.987 188.86 141.693 188.567 141.32C187.954 140.093 189.007 135.92 191.727 128.8C192.687 126.293 193.314 124.8 193.607 124.32C194.274 123.307 194.7 122.733 194.887 122.6C195.1 122.467 195.38 122.493 195.727 122.68Z" fill="white"/>
<path d="M166.255 17.5234L111.458 0.68805C108.472 -0.22935 105.251 -0.22935 102.267 0.68805L47.4682 17.5234C42.8439 18.9437 42.8439 25.059 47.4682 26.4793L57.0214 29.4142C54.9253 32.0054 53.6366 35.1662 53.5089 38.6275C51.6172 39.7119 50.2853 41.6685 50.2853 44.0042C50.2853 46.1219 51.4011 47.9037 53.008 49.0431L47.9928 71.6107C47.5566 73.5732 49.0496 75.4355 51.0593 75.4355H62.0818C64.0934 75.4355 65.5864 73.5732 65.1503 71.6107L60.135 49.0431C61.742 47.9037 62.8578 46.1219 62.8578 44.0042C62.8578 41.7314 61.5868 39.8298 59.7814 38.7257C59.9307 35.7751 61.4394 33.1663 63.8459 31.5123L102.265 43.3167C104.044 43.8628 107.459 44.5445 111.456 43.3167L166.255 26.4813C170.881 25.0591 170.881 18.9457 166.255 17.5234ZM113.303 49.3259C107.698 51.0468 102.923 50.096 100.418 49.3259L71.9296 40.5743L69.144 62.863C69.144 69.8073 86.0304 75.4355 106.862 75.4355C127.693 75.4355 144.579 69.8073 144.579 62.863L141.793 40.5723L113.303 49.3259Z" fill="#5B68DF"/>
</svg>
